<svg width="337" height="360" viewBox="0 0 337 360" fill="none" xmlns="http://www.w3.org/2000/svg">
<path d="M168.05 213.48L128.58 190.54L128.31 94.65L167.77 117.59L168.05 213.48Z" fill="#336699"/>
<path d="M148.27 159.86L108.8 136.92L129.27 22L168.74 44.94L148.27 159.86Z" fill="#11588C"/>
<path d="M170.39 46.35L130.92 23.42L170.3 0.679993L209.77 23.62L170.39 46.35Z" fill="#336699"/>
<path d="M125.22 197.78L85.76 174.84L46.42 141.93L85.89 164.86L125.22 197.78Z" fill="#336699"/>
<path d="M42.72 285.83L3.25003 262.9L2.78003 97.39L42.25 120.33L42.72 285.83Z" fill="#336699"/>
<path d="M208.12 22.05L209.85 168.41L167.66 192.94L166.13 116.67L127 195.42L123.58 197.42L84.2401 164.28L84.5101 260.83L41.0701 286.08L40.6001 119.43L79.9901 96.53L124.64 133.2L168.74 44.94L208.12 22.05Z" fill="#11588C"/>
<path d="M42.25 120.33L2.78003 97.39L42.17 74.65L81.64 97.59L42.25 120.33Z" fill="#336699"/>
<path d="M171.85 118.07L211.32 95.13L211.05 191.02L171.58 213.95L171.85 118.07Z" fill="#4FC5EB" fill-opacity="0.97"/>
<path d="M128.61 23.37L168.08 0.440002L207.46 23.17L167.99 46.11L128.61 23.37Z" fill="#6699CC"/>
<path d="M167.99 46.11L207.46 23.17L251.76 110.95L212.29 133.88L167.99 46.11Z" fill="#4FC5EB" fill-opacity="0.97"/>
<path d="M253.74 165.34L293.21 142.41L253.77 175.26L214.3 198.19L253.74 165.34Z" fill="#808080"/>
<path d="M296.13 120.09L295.66 285.59L253.47 261.23L253.74 165.34L214.3 198.19L210.87 196.21L171.85 118.07L171.58 213.95L128.14 188.88L128.61 23.37L167.99 46.11L212.29 133.88L256.74 97.35L296.13 120.09Z" fill="#11588C"/>
<path d="M296.13 120.09L335.6 97.15L335.13 262.65L295.66 285.59L296.13 120.09Z" fill="#C5C5C5"/>
<path d="M256.74 97.35L296.21 74.41L335.6 97.15L296.13 120.09L256.74 97.35Z" fill="#DCDCDC"/>
<path d="M125.31 3.29001H125.23V3.37H125.31V3.29001Z" fill="white"/>
<path d="M42.48 191.32L81.95 168.38L81.67 264.27L42.21 287.21L42.48 191.32Z" fill="#4FC5EB" fill-opacity="0.97"/>
<path d="M0.48999 97.35L39.95 74.41L79.33 97.15L39.87 120.08L0.48999 97.35Z" fill="#6699CC"/>
<path d="M39.87 120.08L79.33 97.15L123.43 184.8L83.96 207.74L39.87 120.08Z" fill="#4FC5EB" fill-opacity="0.97"/>
<path d="M124.36 238.6L163.83 215.66L124.5 248.57L85.03 271.51L124.36 238.6Z" fill="#4FC5EB" fill-opacity="0.97"/>
<path d="M168 194.06L167.53 359.56L124.09 334.48L124.36 238.6L85.03 271.51L81.6 269.53L42.48 191.32L42.21 287.21L0.0200195 262.85L0.490021 97.35L39.87 120.08L83.96 207.74L128.61 171.32L168 194.06Z" fill="#11588C"/>
<path d="M168 194.06L207.47 171.12L207 336.63L167.53 359.56L168 194.06Z" fill="#C5C5C5"/>
<path d="M128.61 171.32L168.08 148.38L207.47 171.12L168 194.06L128.61 171.32Z" fill="#DCDCDC"/>
<path d="M293.01 287.51L253.54 264.58L253.27 168.7L292.74 191.63L293.01 287.51Z" fill="#11588C"/>
<path d="M252.3 207.44L212.83 184.51L257.13 96.74L296.6 119.68L252.3 207.44Z" fill="#11588C"/>
<path d="M296.64 119.68L257.17 96.74L296.56 74L336.03 96.94L296.64 119.68Z" fill="#6699CC"/>
<path d="M250.29 271.75L210.82 248.82L171.39 215.97L210.86 238.91L250.29 271.75Z" fill="#11588C"/>
<path d="M335.98 96.94L336.45 262.43L293.01 287.51L292.74 191.63L253.72 269.77L250.29 271.75L210.86 238.91L211.13 334.79L168.94 359.15L168.47 193.65L207.85 170.91L252.3 207.44L296.6 119.68L335.98 96.94Z" fill="#4FC5EB" fill-opacity="0.97"/>
<path d="M168.94 359.15L129.47 336.21L129 170.71L168.47 193.65L168.94 359.15Z" fill="#11588C"/>
<path d="M168.51 193.65L129.04 170.71L168.42 147.98L207.89 170.91L168.51 193.65Z" fill="#6699CC"/>
</svg>
